<svg xmlns="http://www.w3.org/2000/svg" viewBox="0 0 244.05 59.4"><g id="Layer_2" data-name="Layer 2"><g id="Layer_1-2" data-name="Layer 1"><path d="M11,13a7.51,7.51,0,0,0-.95.1l-1.62.27c-.62.1-1.27.22-2,.35s-1.32.26-1.92.36L3,14.33a7.34,7.34,0,0,1-.88.11C.69,14.44,0,13.72,0,12.27a6.31,6.31,0,0,1,.11-1.15,3.35,3.35,0,0,1,.38-1.06,2.75,2.75,0,0,1,.75-.81,2.69,2.69,0,0,1,1.17-.47Q6,8.23,9.62,7.61t7.23-1.3c.54-.11,1-.2,1.45-.3s.92-.22,1.46-.38,1.2-.33,1.88-.48,1.37-.3,2.06-.42,1.36-.23,2-.31a14.63,14.63,0,0,1,1.78-.12,1.82,1.82,0,0,1,1.5.63,2.77,2.77,0,0,1,.51,1.78,5.94,5.94,0,0,1-.1,1.13,2.8,2.8,0,0,1-.34,1,1.93,1.93,0,0,1-.68.71,2.35,2.35,0,0,1-1.11.34c-1.17.17-2.43.37-3.77.61a34.17,34.17,0,0,0-3.5.78,1.72,1.72,0,0,0-.92.61,2.21,2.21,0,0,0-.4,1,8,8,0,0,0-.11,1.19c0,.41,0,.79,0,1.16,0,.87,0,1.73.11,2.6s.14,1.73.2,2.6c.19,3,.47,5.9.85,8.81s.8,5.84,1.25,8.81a.89.89,0,0,1,.06.31v.31a2.49,2.49,0,0,1-1.91,2.41l-1.39.43a3.29,3.29,0,0,1-1.09.19,1.72,1.72,0,0,1-1.29-.51,2.68,2.68,0,0,1-.65-1.5q-.87-5.31-1.52-10.59t-.83-10.62c0-.58-.08-1.21-.1-1.89s0-1.38,0-2.1C12.21,13.49,11.79,13,11,13Z"/><path d="M36.39,27.73a13.2,13.2,0,0,0,1.27,6.41,4,4,0,0,0,3.68,2.25,4.85,4.85,0,0,0,2.8-.89A7.79,7.79,0,0,0,46.35,33a13.7,13.7,0,0,0,1.44-3.82,21.32,21.32,0,0,0,.51-4.81,26.57,26.57,0,0,0-.13-2.73c-.08-.78-.17-1.46-.26-2.07s-.18-1.15-.26-1.63a7.19,7.19,0,0,1-.13-1.36,1.49,1.49,0,0,1,.84-1.43A5.86,5.86,0,0,1,51,14.69a5.55,5.55,0,0,1,3.6,1.05A3.74,3.74,0,0,1,55.9,18.8a41.48,41.48,0,0,1-1.06,9.83A23.92,23.92,0,0,1,51.77,36a14.35,14.35,0,0,1-4.83,4.68,12.56,12.56,0,0,1-6.37,1.64,10.41,10.41,0,0,1-4.63-1,11,11,0,0,1-3.65-2.9A14,14,0,0,1,29.9,34,17.65,17.65,0,0,1,29,28.29c0-.78,0-1.62.06-2.5s.11-1.84.19-2.86.19-2.13.32-3.33.29-2.49.45-3.89a2,2,0,0,1,.85-1.44,3.27,3.27,0,0,1,1.94-.54,8.82,8.82,0,0,1,2,.21,6.36,6.36,0,0,1,1.6.59,3.54,3.54,0,0,1,1.05.87,1.67,1.67,0,0,1,.39,1,10,10,0,0,1-.24,1.75c-.15.79-.32,1.7-.49,2.72s-.34,2.12-.5,3.31A27.79,27.79,0,0,0,36.39,27.73Z"/><path d="M57.94,3.46a2.63,2.63,0,0,1,.93-2.28A5.24,5.24,0,0,1,61.93.49a5,5,0,0,1,1.3.16,2.11,2.11,0,0,1,.93.51,2.67,2.67,0,0,1,.6,1,8,8,0,0,1,.39,1.53c.26,1.83.54,3.76.82,5.77s.54,4,.8,6,.5,3.93.73,5.82.42,3.63.6,5.25.31,3.05.4,4.3.14,2.23.14,2.95a7.82,7.82,0,0,1-.2,1.89,2.58,2.58,0,0,1-.68,1.24,2.69,2.69,0,0,1-1.24.66,7.53,7.53,0,0,1-1.87.2,2.49,2.49,0,0,1-1.71-.55,2.15,2.15,0,0,1-.64-1.71c0-.78-.06-1.82-.18-3.13s-.29-2.77-.5-4.38-.44-3.32-.69-5.13-.53-3.61-.81-5.38-.54-3.48-.8-5.12-.49-3.09-.7-4.36-.37-2.31-.49-3.12S57.94,3.57,57.94,3.46Z"/><path d="M74,28.42a6.47,6.47,0,0,1,.12-1.18,7.8,7.8,0,0,0,.13-1.42.91.91,0,0,0-.45-.81l-1-.61a4.32,4.32,0,0,1-1-.87A2.28,2.28,0,0,1,71.3,22a3,3,0,0,1,.39-1.42,4.35,4.35,0,0,1,1.12-1.3,33.89,33.89,0,0,1,3.79-2.44A30,30,0,0,1,80.53,15a25.78,25.78,0,0,1,3.88-1.15,18.48,18.48,0,0,1,3.68-.4,14.43,14.43,0,0,1,10.13,4.1A14.59,14.59,0,0,1,101.28,22a13.37,13.37,0,0,1,1.12,5.46,12.51,12.51,0,0,1-1.19,5.39A14.69,14.69,0,0,1,98,37.35a15.41,15.41,0,0,1-4.71,3,15.34,15.34,0,0,1-11.15.14,13.32,13.32,0,0,1-4.33-2.74A12.58,12.58,0,0,1,75,33.66,13.27,13.27,0,0,1,74,28.42ZM88.27,36A7.56,7.56,0,0,0,91,35.43a8.5,8.5,0,0,0,2.56-1.53,8.21,8.21,0,0,0,1.91-2.46,6.89,6.89,0,0,0,.76-3.27,8.91,8.91,0,0,0-.68-3.47,8.66,8.66,0,0,0-1.87-2.79A8.48,8.48,0,0,0,90.83,20a8.93,8.93,0,0,0-3.51-.68,7.26,7.26,0,0,0-5.26,1.77c-1.22,1.19-1.82,3-1.82,5.46a11.26,11.26,0,0,0,.6,3.73,9,9,0,0,0,1.68,3,8,8,0,0,0,2.55,2A7.32,7.32,0,0,0,88.27,36Z"/><path d="M104.75,3.46a2.63,2.63,0,0,1,.93-2.28,5.24,5.24,0,0,1,3.06-.69,5,5,0,0,1,1.3.16,2.11,2.11,0,0,1,.93.51,2.54,2.54,0,0,1,.6,1A8,8,0,0,1,112,3.65c.27,1.83.54,3.76.82,5.77s.54,4,.8,6,.5,3.93.73,5.82.43,3.63.6,5.25.31,3.05.4,4.3.14,2.23.14,2.95a7.35,7.35,0,0,1-.2,1.89,2.58,2.58,0,0,1-.68,1.24,2.69,2.69,0,0,1-1.24.66,7.53,7.53,0,0,1-1.87.2,2.49,2.49,0,0,1-1.71-.55,2.18,2.18,0,0,1-.64-1.71c0-.78-.06-1.82-.18-3.13s-.29-2.77-.5-4.38-.43-3.32-.69-5.13-.53-3.61-.81-5.38-.54-3.48-.8-5.12L105.44,8c-.21-1.27-.38-2.31-.5-3.12S104.75,3.57,104.75,3.46Z"/><path d="M139.79,11.66a10.27,10.27,0,0,1,3.27.52,9.49,9.49,0,0,1,2.79,1.46,7.32,7.32,0,0,1,1.93,2.22,5.87,5.87,0,0,1,.73,2.88,2.77,2.77,0,0,1-.3,1.25,3.38,3.38,0,0,1-.79,1.05,3.67,3.67,0,0,1-1.13.71A3.29,3.29,0,0,1,145,22l-.11,0-.11,0a.27.27,0,0,1-.12,0l.12,2.47c.09,2.95.5,5.1,1.26,6.46a3.34,3.34,0,0,0,2.95,2,5.11,5.11,0,0,0,1.16-.12,8.32,8.32,0,0,0,1-.29c.3-.12.58-.22.85-.3a2.72,2.72,0,0,1,.8-.12,1.59,1.59,0,0,1,1.25.62,2.16,2.16,0,0,1,.54,1.48,2.82,2.82,0,0,1-.66,1.73,6.68,6.68,0,0,1-1.75,1.56,10,10,0,0,1-2.44,1.13,9,9,0,0,1-2.75.43,5.59,5.59,0,0,1-4.24-2,12,12,0,0,1-2.59-5.86c-.13-.41-.29-.62-.5-.62a.82.82,0,0,0-.65.37,22.35,22.35,0,0,1-6.52,5.8,14,14,0,0,1-6.84,1.93,8.17,8.17,0,0,1-2.84-.46A6.12,6.12,0,0,1,120.6,37,5.74,5.74,0,0,1,119.24,35a7.38,7.38,0,0,1-.48-2.73,12.06,12.06,0,0,1,.94-4.49,23.07,23.07,0,0,1,2.55-4.63A31.57,31.57,0,0,1,126,18.74a32.16,32.16,0,0,1,4.45-3.65,23.91,23.91,0,0,1,4.75-2.51A13,13,0,0,1,139.79,11.66Zm-1,10.69a6.9,6.9,0,0,1,1-1.53,2.34,2.34,0,0,1,1.33-.63c.45-.06.68-.21.68-.43a1,1,0,0,0-.19-.53,9.45,9.45,0,0,0-1.24-1.4,2.41,2.41,0,0,0-1.73-.61,6.37,6.37,0,0,0-2.63.68,17.27,17.27,0,0,0-2.95,1.81,27.58,27.58,0,0,0-2.94,2.57,26.48,26.48,0,0,0-2.55,2.95,17.06,17.06,0,0,0-1.79,3,6.57,6.57,0,0,0-.68,2.66,2.26,2.26,0,0,0,.57,1.64,2.07,2.07,0,0,0,1.56.58c1.69,0,3.54-.89,5.54-2.69A31.23,31.23,0,0,0,138.77,22.35Z"/><path d="M152.52,17.1a2,2,0,0,1,1.09-1.84,6.19,6.19,0,0,1,3.09-.64,2.63,2.63,0,0,1,.83.13,1.45,1.45,0,0,1,.67.48,4.08,4.08,0,0,1,.54,1,13.27,13.27,0,0,1,.49,1.58c.17.72.33,1.08.5,1.08s.32-.3.52-.9a11.51,11.51,0,0,1,1.47-3.07,9.89,9.89,0,0,1,2.06-2.2,8,8,0,0,1,2.49-1.31A9.11,9.11,0,0,1,169.1,11a13.89,13.89,0,0,1,5.59,1.12,13.59,13.59,0,0,1,4.49,3.13,14.93,14.93,0,0,1,3,4.7,15.62,15.62,0,0,1,1.08,5.86,16.3,16.3,0,0,1-1.16,6.18,14.48,14.48,0,0,1-3.23,4.9,15,15,0,0,1-4.93,3.22,16.62,16.62,0,0,1-6.27,1.16l-1.57-.07c-.93,0-1.39.53-1.39,1.58l1.57,14.19a1.88,1.88,0,0,1-.35,1,3.18,3.18,0,0,1-.87.79,4.44,4.44,0,0,1-1.27.52,6.16,6.16,0,0,1-1.5.19c-1.48,0-2.28-.49-2.41-1.46q-.65-5.62-1.44-10.7c-.52-3.38-1.06-6.52-1.6-9.44s-1.08-5.57-1.6-8-1-4.48-1.37-6.25-.72-3.21-1-4.33A13.62,13.62,0,0,1,152.52,17.1Zm10,8.16c0,1.34.05,2.67.16,4s.27,2.73.49,4.26a1.65,1.65,0,0,0,1.52,1.57c.53.13,1.14.25,1.81.36a10.79,10.79,0,0,0,1.68.17,10.44,10.44,0,0,0,3.59-.59,7.74,7.74,0,0,0,2.75-1.68,7.61,7.61,0,0,0,1.76-2.62,8.87,8.87,0,0,0,.62-3.37,14.07,14.07,0,0,0-.62-4.22,11.55,11.55,0,0,0-1.68-3.41,8.12,8.12,0,0,0-2.51-2.29,6,6,0,0,0-3.1-.84,5.49,5.49,0,0,0-2.65.64,6.22,6.22,0,0,0-2,1.76A8.21,8.21,0,0,0,163,21.71,12.71,12.71,0,0,0,162.57,25.26Z"/><path d="M193.18,27.73a13.32,13.32,0,0,0,1.27,6.41,4,4,0,0,0,3.68,2.25,4.85,4.85,0,0,0,2.8-.89A7.79,7.79,0,0,0,203.14,33a13.7,13.7,0,0,0,1.44-3.82,21.32,21.32,0,0,0,.51-4.81,24,24,0,0,0-.13-2.73c-.08-.78-.17-1.46-.26-2.07s-.18-1.15-.26-1.63a8.11,8.11,0,0,1-.13-1.36,1.49,1.49,0,0,1,.84-1.43,5.89,5.89,0,0,1,2.66-.45,5.54,5.54,0,0,1,3.6,1.05,3.71,3.71,0,0,1,1.28,3.06,41.48,41.48,0,0,1-1.06,9.83A23.67,23.67,0,0,1,208.57,36a14.38,14.38,0,0,1-4.84,4.68,12.56,12.56,0,0,1-6.37,1.64,10.37,10.37,0,0,1-4.62-1,10.79,10.79,0,0,1-3.65-2.9,14,14,0,0,1-2.4-4.46,17.65,17.65,0,0,1-.87-5.67c0-.78,0-1.62.07-2.5s.1-1.84.18-2.86.19-2.13.33-3.33.28-2.49.45-3.89a1.92,1.92,0,0,1,.85-1.44,3.22,3.22,0,0,1,1.93-.54,9,9,0,0,1,2,.21,6.14,6.14,0,0,1,1.59.59,3.54,3.54,0,0,1,1.05.87,1.67,1.67,0,0,1,.39,1,10,10,0,0,1-.24,1.75c-.15.79-.31,1.7-.49,2.72s-.34,2.12-.49,3.31A26.06,26.06,0,0,0,193.18,27.73Z"/><path d="M219.28,3a2.63,2.63,0,0,1,.93-2.3A5.31,5.31,0,0,1,223.27,0a5.47,5.47,0,0,1,1.31.14,2,2,0,0,1,.93.51,2.7,2.7,0,0,1,.62,1,8.52,8.52,0,0,1,.38,1.53q.38,2.88.82,5.94t.95,6.15c.12.93.6,1.39,1.45,1.39.23,0,.6,0,1.13-.07l1.87-.19,2.33-.23,2.51-.23,2.38-.19c.75-.05,1.42-.07,2-.07a1.88,1.88,0,0,1,1.08.26,1.9,1.9,0,0,1,.64.68,2.83,2.83,0,0,1,.31.93,7,7,0,0,1,.08,1,3,3,0,0,1-.17,1,3.22,3.22,0,0,1-.47.88,2.46,2.46,0,0,1-.72.64,2,2,0,0,1-1,.24c-1.8,0-3.61.06-5.43.17s-3.64.27-5.46.45c-.93.12-1.39.59-1.39,1.39a1.11,1.11,0,0,0,0,.23,1.2,1.2,0,0,1,0,.24c.25,1.79.48,3.47.7,5s.4,3,.55,4.19.28,2.24.38,3.06.13,1.35.13,1.62a7.14,7.14,0,0,1-.21,1.87,2.76,2.76,0,0,1-.71,1.24,2.86,2.86,0,0,1-1.32.68,9,9,0,0,1-2.05.2,2.35,2.35,0,0,1-1.73-.56,2.47,2.47,0,0,1-.62-1.7c-.13-2.43-.32-4.88-.59-7.34s-.58-4.92-.93-7.38c-.18-.88-.65-1.33-1.39-1.33a.69.69,0,0,0-.22,0l-.21,0c-1.28.28-2.49.57-3.62.86s-2.2.6-3.18.93a12.33,12.33,0,0,1-1.49.39,7.29,7.29,0,0,1-1.17.1,1.1,1.1,0,0,1-1.05-.63,3.28,3.28,0,0,1-.34-1.59,6,6,0,0,1,.06-.79,4.25,4.25,0,0,1,.23-.9,2.93,2.93,0,0,1,.49-.83,2.48,2.48,0,0,1,.88-.64,30.64,30.64,0,0,1,3.47-1.09c1.44-.38,3.07-.74,4.88-1.07a2,2,0,0,0,1-.51,1.48,1.48,0,0,0,.35-1.07v-.32a1.23,1.23,0,0,0-.06-.36q-.49-2.84-.94-5.18c-.3-1.55-.56-2.89-.77-4s-.39-2-.52-2.63S219.28,3.07,219.28,3Z"/></g></g></svg>