<svg xmlns="http://www.w3.org/2000/svg" viewBox="0 0 290.46 96.63"><g id="Layer_2" data-name="Layer 2"><g id="Layer_1-2" data-name="Layer 1"><path d="M19.45,14.75a4.64,4.64,0,0,0-.16-1c-.1-.45-.22-1-.37-1.56s-.31-1.22-.49-1.89-.35-1.32-.5-2-.26-1.24-.37-1.8a8.06,8.06,0,0,1-.15-1.39A1.67,1.67,0,0,1,17.81,4a2.64,2.64,0,0,1,1-.69,5.09,5.09,0,0,1,1.33-.34,10.9,10.9,0,0,1,1.36-.1,3,3,0,0,1,1.56.45,2.4,2.4,0,0,1,1,1.6c.22.8.41,1.61.57,2.42s.29,1.61.42,2.38.24,1.52.35,2.25.23,1.39.36,2a3.53,3.53,0,0,0,.48,1.18,1.94,1.94,0,0,0,.71.66,2.35,2.35,0,0,0,.89.3,8.45,8.45,0,0,0,1,.06A8,8,0,0,0,30.27,16a7.42,7.42,0,0,1,1.39-.13,2.75,2.75,0,0,1,.85.14,1.83,1.83,0,0,1,.76.5,2.37,2.37,0,0,1,.54,1,5.33,5.33,0,0,1,.2,1.58,2.63,2.63,0,0,1-.31,1.34,1.65,1.65,0,0,1-1.17.73l-1.12.25-1,.14-1.13.1c-1,.11-1.45.53-1.45,1.27q0,.09.12.84c.08.49.19,1.1.33,1.84s.28,1.53.44,2.41.33,1.71.48,2.52.3,1.52.42,2.15.22,1.07.28,1.34c.1.45.19.81.25,1.05a4.56,4.56,0,0,1,.09,1,1.9,1.9,0,0,1-.28,1,2.64,2.64,0,0,1-.82.85,4.81,4.81,0,0,1-1.31.6,6,6,0,0,1-1.76.23,1.81,1.81,0,0,1-1.57-.66,4,4,0,0,1-.66-1.53c-.27-1.07-.52-2.18-.76-3.31s-.46-2.26-.68-3.37l-.62-3.26-.54-3.05a1.73,1.73,0,0,0-.55-1,1.56,1.56,0,0,0-1-.33c-1.41,0-2.81.05-4.22.14s-2.8.17-4.16.23a1.72,1.72,0,0,0-1.12.47,1.42,1.42,0,0,0-.4,1.05c0,1,0,1.92,0,2.87s0,1.92,0,2.91,0,2.3,0,3.49-.08,2.35-.14,3.47a2,2,0,0,1-.36,1,2.33,2.33,0,0,1-.74.65,3.5,3.5,0,0,1-1,.34A7.46,7.46,0,0,1,6.4,39a4.44,4.44,0,0,1-2.26-.48,1.74,1.74,0,0,1-.8-1.62c0-1.16,0-2.36.09-3.62s.09-2.53.09-3.8q0-1.31,0-2.52t0-2.52a1.28,1.28,0,0,0-.26-.89A2.26,2.26,0,0,0,2.57,23a6.62,6.62,0,0,0-.84-.36,2.3,2.3,0,0,1-.83-.51,2.78,2.78,0,0,1-.64-1A5,5,0,0,1,0,19.39a1.82,1.82,0,0,1,.23-1,2,2,0,0,1,.59-.57,4.82,4.82,0,0,1,.76-.36,4,4,0,0,0,.75-.35,1.92,1.92,0,0,0,.59-.54,1.57,1.57,0,0,0,.23-.94c0-.25,0-.55,0-.89s0-.66-.06-1S3,13.21,3,13s0-.4,0-.48a4.12,4.12,0,0,1,.29-1.68,2.39,2.39,0,0,1,.73-1,2.3,2.3,0,0,1,1-.43,4.78,4.78,0,0,1,1-.11A3.74,3.74,0,0,1,8.58,10a2.9,2.9,0,0,1,.79,2l.12,3.24a1.92,1.92,0,0,0,.4,1.13,1.42,1.42,0,0,0,1.12.39l7-.25a1.4,1.4,0,0,0,1.16-.49A2.61,2.61,0,0,0,19.45,14.75Z"/><path d="M42.85,27.24a13.28,13.28,0,0,0,1.27,6.4A4,4,0,0,0,47.8,35.9a4.79,4.79,0,0,0,2.8-.9,7.75,7.75,0,0,0,2.21-2.5,14,14,0,0,0,1.44-3.82,21.44,21.44,0,0,0,.51-4.81,24.31,24.31,0,0,0-.13-2.74c-.08-.77-.17-1.46-.26-2.07s-.18-1.15-.26-1.62A8.31,8.31,0,0,1,54,16.08a1.52,1.52,0,0,1,.84-1.44,5.89,5.89,0,0,1,2.66-.45,5.54,5.54,0,0,1,3.6,1.05,3.71,3.71,0,0,1,1.28,3.06,41.63,41.63,0,0,1-1.06,9.84,23.71,23.71,0,0,1-3.06,7.4,14.5,14.5,0,0,1-4.84,4.69A12.56,12.56,0,0,1,47,41.86a10.36,10.36,0,0,1-4.62-1,10.7,10.7,0,0,1-3.65-2.91,14,14,0,0,1-2.4-4.45,17.66,17.66,0,0,1-.86-5.67c0-.79,0-1.62.06-2.51s.1-1.84.18-2.86.19-2.13.33-3.32.28-2.5.45-3.9a1.94,1.94,0,0,1,.85-1.44,3.22,3.22,0,0,1,1.93-.54,9,9,0,0,1,2,.22,5.8,5.8,0,0,1,1.59.59,3.51,3.51,0,0,1,1.05.86,1.67,1.67,0,0,1,.39,1,9.8,9.8,0,0,1-.24,1.75c-.15.8-.31,1.7-.49,2.72s-.34,2.13-.49,3.31A26.32,26.32,0,0,0,42.85,27.24Z"/><path d="M64.4,3A2.65,2.65,0,0,1,65.33.68,5.32,5.32,0,0,1,68.39,0a5,5,0,0,1,1.3.15,2.23,2.23,0,0,1,.93.52,2.42,2.42,0,0,1,.6,1,7.69,7.69,0,0,1,.39,1.53q.4,2.76.82,5.77c.28,2,.54,4,.8,6s.5,3.93.73,5.81.43,3.64.6,5.26.31,3.05.4,4.3.14,2.23.14,3a7.26,7.26,0,0,1-.2,1.88,2.54,2.54,0,0,1-.68,1.24A2.8,2.8,0,0,1,73,37a7.53,7.53,0,0,1-1.87.2,2.5,2.5,0,0,1-1.71-.56,2.16,2.16,0,0,1-.64-1.7c0-.78-.06-1.83-.18-3.14s-.29-2.77-.5-4.37-.43-3.32-.69-5.14-.53-3.6-.81-5.38-.54-3.47-.8-5.11l-.69-4.36c-.21-1.27-.38-2.31-.5-3.13S64.4,3.07,64.4,3Z"/><path d="M78.35,3A2.65,2.65,0,0,1,79.28.68,5.32,5.32,0,0,1,82.34,0a5,5,0,0,1,1.3.15,2.13,2.13,0,0,1,.92.52,2.56,2.56,0,0,1,.61,1,8.52,8.52,0,0,1,.38,1.53q.4,2.76.82,5.77t.81,6c.25,2,.5,3.93.72,5.81s.43,3.64.61,5.26.31,3.05.4,4.3.14,2.23.14,3a7.73,7.73,0,0,1-.2,1.88,2.62,2.62,0,0,1-.68,1.24,2.86,2.86,0,0,1-1.24.67,7.64,7.64,0,0,1-1.87.2,2.54,2.54,0,0,1-1.72-.56,2.15,2.15,0,0,1-.63-1.7c0-.78-.06-1.83-.19-3.14s-.29-2.77-.49-4.37-.44-3.32-.7-5.14-.52-3.6-.8-5.38-.55-3.47-.8-5.11-.5-3.1-.7-4.36-.37-2.31-.5-3.13S78.35,3.07,78.35,3Z"/><path d="M100.46,27.24a13.29,13.29,0,0,0,1.26,6.4,4,4,0,0,0,3.68,2.26,4.77,4.77,0,0,0,2.8-.9,7.64,7.64,0,0,0,2.21-2.5,14,14,0,0,0,1.44-3.82,21.44,21.44,0,0,0,.51-4.81,27.2,27.2,0,0,0-.12-2.74c-.09-.77-.17-1.46-.27-2.07s-.18-1.15-.26-1.62a8.26,8.26,0,0,1-.12-1.36,1.53,1.53,0,0,1,.83-1.44,5.89,5.89,0,0,1,2.66-.45,5.52,5.52,0,0,1,3.6,1.05A3.72,3.72,0,0,1,120,18.3a41.6,41.6,0,0,1-1.07,9.84,23.71,23.71,0,0,1-3.06,7.4A14.41,14.41,0,0,1,111,40.23a12.56,12.56,0,0,1-6.37,1.63,10.36,10.36,0,0,1-4.62-1,10.79,10.79,0,0,1-3.65-2.91A14,14,0,0,1,94,33.47a17.94,17.94,0,0,1-.86-5.67c0-.79,0-1.62.06-2.51s.1-1.84.19-2.86.19-2.13.32-3.32.28-2.5.45-3.9A1.94,1.94,0,0,1,95,13.77a3.24,3.24,0,0,1,1.93-.54,9,9,0,0,1,2,.22,5.8,5.8,0,0,1,1.59.59,3.39,3.39,0,0,1,1,.86,1.67,1.67,0,0,1,.39,1,10.56,10.56,0,0,1-.23,1.75c-.16.8-.32,1.7-.5,2.72s-.34,2.13-.49,3.31A26.29,26.29,0,0,0,100.46,27.24Z"/><path d="M124.2,13.23a1.4,1.4,0,0,1,.4-.91,3.73,3.73,0,0,1,1.06-.8,6.65,6.65,0,0,1,1.46-.59,6.27,6.27,0,0,1,1.66-.23,1.24,1.24,0,0,1,.79.25,2,2,0,0,1,.57.94,12.5,12.5,0,0,1,.45,1.95c.13.83.26,1.92.38,3.26a7.71,7.71,0,0,0,.24.94c.07.22.17.33.29.33s.37-.32.56-1q2.25-6.52,6.52-6.53a5.82,5.82,0,0,1,3.6,1.24,11.55,11.55,0,0,1,3,4,41.39,41.39,0,0,1,2.68,7.35q1.26,4.57,2.53,11.24c0,.23.07.44.1.62a5,5,0,0,1,0,.53,2.2,2.2,0,0,1-.33,1.22,2.5,2.5,0,0,1-.85.83,4.39,4.39,0,0,1-1.17.5,5.34,5.34,0,0,1-1.3.17,4.48,4.48,0,0,1-1.87-.28,1.39,1.39,0,0,1-.73-1.05c-.6-3.13-1.18-5.92-1.75-8.35s-1.12-4.48-1.67-6.14A17.63,17.63,0,0,0,139.26,19c-.54-.87-1.07-1.3-1.61-1.3a1.92,1.92,0,0,0-1.5,1,11.86,11.86,0,0,0-1.34,3.14,50.84,50.84,0,0,0-1.25,5.41c-.41,2.19-.79,4.79-1.16,7.82a2.74,2.74,0,0,1-1.24,2,4.72,4.72,0,0,1-2.75.74,2.69,2.69,0,0,1-1.7-.46,1.67,1.67,0,0,1-.65-1.27q-.28-6.42-.61-10.59c-.21-2.77-.41-5-.6-6.68s-.34-2.93-.46-3.75A12.88,12.88,0,0,1,124.2,13.23Z"/><path d="M173.18,11.16a10.38,10.38,0,0,1,3.28.53,9.29,9.29,0,0,1,2.78,1.45,7.22,7.22,0,0,1,1.93,2.23,5.8,5.8,0,0,1,.73,2.87,2.74,2.74,0,0,1-.3,1.25,3.28,3.28,0,0,1-.78,1.06,4,4,0,0,1-1.13.71,3.53,3.53,0,0,1-1.32.26l-.1,0h-.11l-.13,0,.13,2.48a14.86,14.86,0,0,0,1.25,6.46,3.35,3.35,0,0,0,3,2,4.57,4.57,0,0,0,1.16-.13,8.32,8.32,0,0,0,1-.29c.3-.11.58-.21.85-.29a2.84,2.84,0,0,1,.8-.13,1.65,1.65,0,0,1,1.26.62,2.19,2.19,0,0,1,.54,1.49,2.82,2.82,0,0,1-.67,1.73,6.81,6.81,0,0,1-1.74,1.56,10.6,10.6,0,0,1-2.45,1.13,8.92,8.92,0,0,1-2.75.43,5.59,5.59,0,0,1-4.24-2,12.09,12.09,0,0,1-2.59-5.86c-.13-.42-.29-.62-.5-.62a.81.81,0,0,0-.65.37,22.35,22.35,0,0,1-6.52,5.8A13.94,13.94,0,0,1,159,38.31a8.52,8.52,0,0,1-2.85-.46A6.08,6.08,0,0,1,154,36.53a5.92,5.92,0,0,1-1.36-2.07,7.43,7.43,0,0,1-.48-2.74,12,12,0,0,1,.95-4.48,22.65,22.65,0,0,1,2.55-4.64,31.39,31.39,0,0,1,3.72-4.36,32.37,32.37,0,0,1,4.46-3.65,23.51,23.51,0,0,1,4.74-2.5A12.8,12.8,0,0,1,173.18,11.16Zm-1,10.7a6.9,6.9,0,0,1,1-1.53,2.34,2.34,0,0,1,1.33-.63c.45-.07.68-.21.68-.44a.9.9,0,0,0-.19-.52,9.57,9.57,0,0,0-1.23-1.41,2.47,2.47,0,0,0-1.74-.6,6.14,6.14,0,0,0-2.62.68,16.15,16.15,0,0,0-3,1.81,27.38,27.38,0,0,0-2.93,2.56,25.55,25.55,0,0,0-2.55,3,17.45,17.45,0,0,0-1.8,3,6.57,6.57,0,0,0-.68,2.66,2.26,2.26,0,0,0,.57,1.64,2.1,2.1,0,0,0,1.57.59c1.68,0,3.53-.9,5.53-2.69A31.23,31.23,0,0,0,172.16,21.86Z"/><path d="M39.8,65.65a6.45,6.45,0,0,1,.12-1.17,7.91,7.91,0,0,0,.13-1.43.88.88,0,0,0-.45-.8l-1-.62a4.09,4.09,0,0,1-1-.87,2.25,2.25,0,0,1-.45-1.51,2.93,2.93,0,0,1,.39-1.42,4,4,0,0,1,1.13-1.3,31.59,31.59,0,0,1,3.78-2.44,30.08,30.08,0,0,1,3.93-1.83,26.93,26.93,0,0,1,3.88-1.14,17.77,17.77,0,0,1,3.68-.4,14.27,14.27,0,0,1,5.58,1.09,14.13,14.13,0,0,1,7.61,7.46,13.37,13.37,0,0,1,1.13,5.45,12.53,12.53,0,0,1-1.2,5.4,14.69,14.69,0,0,1-3.2,4.47,15.39,15.39,0,0,1-4.71,3A15.21,15.21,0,0,1,48,77.77,13.15,13.15,0,0,1,43.66,75a12.38,12.38,0,0,1-2.84-4.14A13.24,13.24,0,0,1,39.8,65.65Zm14.32,7.54a7.53,7.53,0,0,0,2.68-.52,8.5,8.5,0,0,0,2.56-1.53,8.21,8.21,0,0,0,1.91-2.46A6.93,6.93,0,0,0,62,65.4a8.79,8.79,0,0,0-2.55-6.26,8.64,8.64,0,0,0-2.81-1.87,9.11,9.11,0,0,0-3.51-.68,7.22,7.22,0,0,0-5.26,1.78c-1.22,1.18-1.82,3-1.82,5.46a11.16,11.16,0,0,0,.6,3.72,9.08,9.08,0,0,0,1.68,3,8,8,0,0,0,2.56,2A7.12,7.12,0,0,0,54.12,73.19Z"/><path d="M69.27,54.33a2,2,0,0,1,1.08-1.84,6.2,6.2,0,0,1,3.09-.63,2.64,2.64,0,0,1,.83.12,1.61,1.61,0,0,1,.67.48,3.68,3.68,0,0,1,.54,1A13.44,13.44,0,0,1,76,55c.16.73.32,1.09.49,1.09s.32-.3.53-.9a11.56,11.56,0,0,1,1.46-3.08,9.84,9.84,0,0,1,2.06-2.19A8.07,8.07,0,0,1,83,48.61a9.15,9.15,0,0,1,2.83-.43,13.89,13.89,0,0,1,5.59,1.13,13.42,13.42,0,0,1,4.49,3.12,15,15,0,0,1,3,4.7A15.7,15.7,0,0,1,100,63a16.23,16.23,0,0,1-1.16,6.18,14.62,14.62,0,0,1-3.23,4.91,14.81,14.81,0,0,1-4.93,3.21,16.62,16.62,0,0,1-6.27,1.16l-1.57-.06c-.93,0-1.39.52-1.39,1.58L83,94.16a1.85,1.85,0,0,1-.35,1,3.18,3.18,0,0,1-.87.79,4.45,4.45,0,0,1-1.27.53,6.16,6.16,0,0,1-1.5.18c-1.48,0-2.28-.48-2.41-1.45q-.65-5.62-1.43-10.7T73.55,75c-.55-2.91-1.08-5.57-1.59-8s-1-4.47-1.38-6.24-.72-3.22-1-4.33A13.39,13.39,0,0,1,69.27,54.33Zm10,8.17c0,1.34.06,2.66.16,4s.27,2.73.49,4.25a1.66,1.66,0,0,0,1.52,1.58c.53.12,1.14.24,1.81.35a9.69,9.69,0,0,0,1.68.17,10.44,10.44,0,0,0,3.59-.58,7.91,7.91,0,0,0,2.75-1.69,7.48,7.48,0,0,0,1.76-2.61,8.72,8.72,0,0,0,.62-3.37,13.72,13.72,0,0,0-.62-4.22,11.61,11.61,0,0,0-1.68-3.42,8.25,8.25,0,0,0-2.51-2.29,6.13,6.13,0,0,0-3.1-.83,5.6,5.6,0,0,0-2.65.63,6.22,6.22,0,0,0-2,1.76,8.4,8.4,0,0,0-1.31,2.74A12.78,12.78,0,0,0,79.31,62.5Z"/><path d="M100.43,54.33a2,2,0,0,1,1.08-1.84,6.27,6.27,0,0,1,3.1-.63,2.68,2.68,0,0,1,.83.12,1.61,1.61,0,0,1,.67.48,4,4,0,0,1,.54,1,13.64,13.64,0,0,1,.49,1.57c.17.73.33,1.09.5,1.09s.32-.3.52-.9a11.28,11.28,0,0,1,1.47-3.08,9.61,9.61,0,0,1,2.06-2.19,8.07,8.07,0,0,1,2.49-1.32,9.09,9.09,0,0,1,2.82-.43,13.94,13.94,0,0,1,5.6,1.13,13.38,13.38,0,0,1,4.48,3.12,14.69,14.69,0,0,1,3,4.7A15.7,15.7,0,0,1,131.13,63,16.22,16.22,0,0,1,130,69.17a14.36,14.36,0,0,1-8.17,8.12,16.53,16.53,0,0,1-6.26,1.16L114,78.39c-.92,0-1.39.52-1.39,1.58l1.58,14.19a1.78,1.78,0,0,1-.36,1,3,3,0,0,1-.86.79,4.45,4.45,0,0,1-1.27.53,6.16,6.16,0,0,1-1.5.18c-1.48,0-2.29-.48-2.41-1.45q-.65-5.62-1.44-10.7T104.71,75c-.54-2.91-1.07-5.57-1.59-8s-1-4.47-1.37-6.24-.73-3.22-1-4.33A13.86,13.86,0,0,1,100.43,54.33Zm10,8.17c0,1.34,0,2.66.16,4s.26,2.73.49,4.25a1.65,1.65,0,0,0,1.52,1.58c.53.12,1.13.24,1.8.35a9.79,9.79,0,0,0,1.69.17,10.48,10.48,0,0,0,3.59-.58,8,8,0,0,0,2.75-1.69,7.48,7.48,0,0,0,1.76-2.61,8.91,8.91,0,0,0,.62-3.37,14,14,0,0,0-.62-4.22,11.39,11.39,0,0,0-1.69-3.42,8.22,8.22,0,0,0-2.5-2.29,6.14,6.14,0,0,0-3.11-.83,5.53,5.53,0,0,0-2.64.63,6.22,6.22,0,0,0-2,1.76A8.21,8.21,0,0,0,111,58.94,12.78,12.78,0,0,0,110.48,62.5Z"/><path d="M139.24,44.38a5.21,5.21,0,0,1-1.69-.27,4,4,0,0,1-1.36-.74,3.55,3.55,0,0,1-.91-1.13,3,3,0,0,1-.34-1.42,2.54,2.54,0,0,1,1-2.1,4.38,4.38,0,0,1,2.77-.8,4.1,4.1,0,0,1,1.55.29,4.67,4.67,0,0,1,1.31.79,3.66,3.66,0,0,1,.91,1.16,2.92,2.92,0,0,1,.34,1.37,2.49,2.49,0,0,1-1,2.09A4.23,4.23,0,0,1,139.24,44.38ZM135,53.81a2.12,2.12,0,0,1,.94-1.78,4.13,4.13,0,0,1,2.49-.7q2.79,0,3,1.92c.08.89.17,1.89.26,3s.19,2.29.28,3.54.18,2.54.25,3.87.14,2.63.2,3.92.11,2.53.15,3.73.07,2.29.07,3.28a2.63,2.63,0,0,1-1.1,2.31,5.5,5.5,0,0,1-3.2.78,2.28,2.28,0,0,1-1.5-.45,1.61,1.61,0,0,1-.54-1.31c0-2.85-.07-5.51-.2-8s-.28-4.69-.44-6.63-.3-3.55-.43-4.84S135,54.28,135,53.81Z"/><path d="M151.08,77.24q-.22-4.11-.7-7.59t-1-6.07c-.34-1.73-.64-3.13-.89-4.21a12.34,12.34,0,0,1-.39-2,1.8,1.8,0,0,1,.45-1.14,4.14,4.14,0,0,1,1.13-1,6.55,6.55,0,0,1,1.47-.67,5,5,0,0,1,1.43-.25,2.11,2.11,0,0,1,.91.19,1.06,1.06,0,0,1,.55.62c.1.35.2.71.29,1.09s.19.85.29,1.38c.13.76.29,1.14.5,1.14s.48-.34.77-1a11.57,11.57,0,0,1,1.33-2.35,6.54,6.54,0,0,1,1.53-1.46,5.36,5.36,0,0,1,1.7-.76,7.42,7.42,0,0,1,1.84-.22,6.36,6.36,0,0,1,4.93,2.29,16.1,16.1,0,0,1,3.17,6.62,1.89,1.89,0,0,0,.28.63.38.38,0,0,0,.28.14.53.53,0,0,0,.32-.14,1.3,1.3,0,0,0,.33-.57,14.76,14.76,0,0,1,1.73-3.42,11.37,11.37,0,0,1,2.06-2.29,7.45,7.45,0,0,1,2.18-1.28,6.2,6.2,0,0,1,2.13-.4,5,5,0,0,1,3.42,1.38,11.62,11.62,0,0,1,2.72,4.23,40,40,0,0,1,2.07,7.24,103.65,103.65,0,0,1,1.47,10.37,2.56,2.56,0,0,1-1,2.33,5,5,0,0,1-2.79.67,2.88,2.88,0,0,1-1.79-.5,1.83,1.83,0,0,1-.74-1.29q-.41-4.31-.88-7.66t-1-5.66a15,15,0,0,0-1.22-3.51q-.66-1.2-1.47-1.2a1.65,1.65,0,0,0-1,.59,6.9,6.9,0,0,0-1.29,2.15,34.35,34.35,0,0,0-1.42,4.26,68.88,68.88,0,0,0-1.42,6.91,2.51,2.51,0,0,1-1.13,1.8,4.13,4.13,0,0,1-2.3.61,3.55,3.55,0,0,1-2.18-.49,2.18,2.18,0,0,1-.67-1.67c-.08-1.36-.22-2.72-.41-4.07s-.44-2.63-.73-3.86-.61-2.36-1-3.4A20.64,20.64,0,0,0,163.82,61a7.75,7.75,0,0,0-1.21-1.81,1.73,1.73,0,0,0-1.2-.65q-.78,0-1.5,1.08a10.89,10.89,0,0,0-1.3,3.06,30.28,30.28,0,0,0-.92,4.76,53.11,53.11,0,0,0-.34,6.22c0,.39,0,.78,0,1.16s0,.78,0,1.19a3.3,3.3,0,0,1-.3,1.51,2.2,2.2,0,0,1-.83.93A3.53,3.53,0,0,1,155,79a9.38,9.38,0,0,1-1.55.12,5.78,5.78,0,0,1-1.24-.11,1.67,1.67,0,0,1-.71-.32,1.17,1.17,0,0,1-.34-.58A4.46,4.46,0,0,1,151.08,77.24Z"/><path d="M212.7,48.89a10.34,10.34,0,0,1,3.28.53,9.29,9.29,0,0,1,2.78,1.45,7.22,7.22,0,0,1,1.93,2.23,5.7,5.7,0,0,1,.73,2.87,2.77,2.77,0,0,1-.3,1.25,3.28,3.28,0,0,1-.78,1.06,4.24,4.24,0,0,1-1.13.71,3.49,3.49,0,0,1-1.32.26.16.16,0,0,0-.1,0h-.11a.31.31,0,0,1-.13,0l.13,2.48a14.86,14.86,0,0,0,1.25,6.46,3.35,3.35,0,0,0,2.95,2,4.52,4.52,0,0,0,1.16-.13,8.32,8.32,0,0,0,1-.29c.3-.11.58-.21.85-.29a2.53,2.53,0,0,1,.8-.13,1.64,1.64,0,0,1,1.26.62,2.19,2.19,0,0,1,.54,1.49,2.82,2.82,0,0,1-.67,1.73A7,7,0,0,1,225,74.85,10.6,10.6,0,0,1,222.59,76a8.92,8.92,0,0,1-2.75.43,5.55,5.55,0,0,1-4.23-2,12,12,0,0,1-2.6-5.86c-.13-.42-.29-.62-.5-.62a.81.81,0,0,0-.65.37,22.35,22.35,0,0,1-6.52,5.8A14,14,0,0,1,198.51,76a8.27,8.27,0,0,1-2.85-.47,5.69,5.69,0,0,1-3.51-3.38,7.43,7.43,0,0,1-.48-2.74,12,12,0,0,1,1-4.48,23.14,23.14,0,0,1,2.55-4.64A31.39,31.39,0,0,1,198.89,56a33,33,0,0,1,4.46-3.65,23.51,23.51,0,0,1,4.74-2.5A12.84,12.84,0,0,1,212.7,48.89Zm-1,10.7a6.9,6.9,0,0,1,1-1.53,2.34,2.34,0,0,1,1.33-.63c.45-.07.68-.21.68-.44a.9.9,0,0,0-.19-.52,9.57,9.57,0,0,0-1.23-1.41,2.46,2.46,0,0,0-1.73-.6,6.18,6.18,0,0,0-2.63.68A16.15,16.15,0,0,0,206,57,27.38,27.38,0,0,0,203,59.51a25.55,25.55,0,0,0-2.55,3,17.45,17.45,0,0,0-1.8,3,6.57,6.57,0,0,0-.68,2.66,2.26,2.26,0,0,0,.57,1.64,2.12,2.12,0,0,0,1.57.59q2.53,0,5.53-2.69A31.23,31.23,0,0,0,211.68,59.59Z"/><path d="M247.85,48.89a10.29,10.29,0,0,1,3.28.53,9.47,9.47,0,0,1,2.79,1.45,7.36,7.36,0,0,1,1.93,2.23,5.8,5.8,0,0,1,.72,2.87,2.76,2.76,0,0,1-.29,1.25,3.46,3.46,0,0,1-.79,1.06,4.08,4.08,0,0,1-1.13.71,3.48,3.48,0,0,1-1.31.26.2.2,0,0,0-.11,0h-.11l-.12,0,.12,2.48a15,15,0,0,0,1.25,6.46,3.36,3.36,0,0,0,3,2,4.57,4.57,0,0,0,1.16-.13,8.32,8.32,0,0,0,1-.29c.29-.11.58-.21.85-.29a2.44,2.44,0,0,1,.8-.13,1.63,1.63,0,0,1,1.25.62,2.19,2.19,0,0,1,.54,1.49,2.87,2.87,0,0,1-.66,1.73,7.05,7.05,0,0,1-1.75,1.56A10.33,10.33,0,0,1,257.75,76a9,9,0,0,1-2.75.43,5.59,5.59,0,0,1-4.24-2,12.09,12.09,0,0,1-2.6-5.86c-.12-.42-.28-.62-.49-.62a.8.8,0,0,0-.65.37,22.47,22.47,0,0,1-6.52,5.8A14.05,14.05,0,0,1,233.66,76a8.17,8.17,0,0,1-2.84-.47,5.69,5.69,0,0,1-3.51-3.38,7.43,7.43,0,0,1-.48-2.74,12,12,0,0,1,.94-4.48,23.14,23.14,0,0,1,2.55-4.64A31.47,31.47,0,0,1,234.05,56a32.9,32.9,0,0,1,4.45-3.65,23.85,23.85,0,0,1,4.75-2.5A12.79,12.79,0,0,1,247.85,48.89Zm-1,10.7a7.67,7.67,0,0,1,1-1.53,2.37,2.37,0,0,1,1.33-.63c.46-.07.68-.21.68-.44a1,1,0,0,0-.18-.52,9.06,9.06,0,0,0-1.24-1.41,2.44,2.44,0,0,0-1.73-.6,6.22,6.22,0,0,0-2.63.68,16.09,16.09,0,0,0-3,1.81,27.46,27.46,0,0,0-2.94,2.56,25.55,25.55,0,0,0-2.55,3,17.36,17.36,0,0,0-1.79,3,6.41,6.41,0,0,0-.68,2.66,2.26,2.26,0,0,0,.57,1.64,2.08,2.08,0,0,0,1.56.59q2.53,0,5.54-2.69A31.45,31.45,0,0,0,246.83,59.59Z"/><path d="M264.12,51a1.35,1.35,0,0,1,.4-.91,3.82,3.82,0,0,1,1.05-.8,6.54,6.54,0,0,1,1.47-.59,5.87,5.87,0,0,1,1.65-.23,1.22,1.22,0,0,1,.79.25,1.89,1.89,0,0,1,.57.94,10.56,10.56,0,0,1,.45,2c.14.83.27,1.92.39,3.26a8.63,8.63,0,0,0,.23.94q.11.33.3.33c.18,0,.37-.32.55-1q2.26-6.53,6.53-6.53a5.84,5.84,0,0,1,3.6,1.24,11.45,11.45,0,0,1,3,4,40.68,40.68,0,0,1,2.67,7.35q1.27,4.56,2.54,11.24c0,.23.07.44.09.62a5,5,0,0,1,0,.53,2.29,2.29,0,0,1-.32,1.22,2.59,2.59,0,0,1-.85.83,4.46,4.46,0,0,1-1.18.5,5.21,5.21,0,0,1-1.3.17,4.51,4.51,0,0,1-1.87-.28,1.38,1.38,0,0,1-.72-1c-.6-3.13-1.18-5.92-1.75-8.35s-1.13-4.48-1.67-6.14a18.71,18.71,0,0,0-1.62-3.78c-.54-.87-1.08-1.3-1.61-1.3a1.89,1.89,0,0,0-1.5,1,11.82,11.82,0,0,0-1.35,3.14A50.84,50.84,0,0,0,273.47,65c-.4,2.19-.79,4.79-1.16,7.82a2.7,2.7,0,0,1-1.23,2,4.75,4.75,0,0,1-2.76.74,2.69,2.69,0,0,1-1.7-.46,1.71,1.71,0,0,1-.65-1.27q-.27-6.42-.6-10.59t-.6-6.68c-.19-1.68-.34-2.93-.47-3.75A14.28,14.28,0,0,1,264.12,51Z"/></g></g></svg>